# xmcd CD database file
#
# Track frame offsets:
#	150
#	23405
#	46347
#	72719
#	96844
#	117213
#	141816
#	167194
#	189933
#	213048
#
# Disc length: 3145 seconds
#
# Revision: 0
# Processed by: cddbd v1.5PL3 Copyright (c) Steve Scherf et al.
# Submitted via: CDex 1.51
#
DISCID=840c470a
DTITLE=Compoz Records - Inspirational Jazz Series
DYEAR=1999
DGENRE=Jazz
TTITLE0=Rock of Ages
TTITLE1=This is my Father's world
TTITLE2=Great is Thy Faithfulness
TTITLE3=Be still, my soul
TTITLE4=Victory in Jesus
TTITLE5=My Jesus, I love Thee
TTITLE6=There is Power in the Blood
TTITLE7=Amazing Grace
TTITLE8=It is well with my soul
TTITLE9=To God be the glory
EXTD=YEAR: 1999
EXTT0=
EXTT1=
EXTT2=
EXTT3=
EXTT4=
EXTT5=
EXTT6=
EXTT7=
EXTT8=
EXTT9=
PLAYORDER=
